<mxfile host="app.diagrams.net" modified="2023-05-27T10:17:40.685Z" agent="Mozilla/5.0 (Macintosh; Intel Mac OS X 10_15_7) AppleWebKit/605.1.15 (KHTML, like Gecko) Version/16.4 Safari/605.1.15" etag="5RYxUh8J9xUd-fUhbcSC" version="21.3.4" type="github">
  <diagram name="第 1 页" id="CWTBCon9eKZ4pM7C-I6c">
    <mxGraphModel dx="1234" dy="664" grid="1" gridSize="10" guides="1" tooltips="1" connect="1" arrows="1" fold="1" page="1" pageScale="1" pageWidth="827" pageHeight="1169" math="0" shadow="0">
      <root>
        <mxCell id="0" />
        <mxCell id="1" parent="0" />
        <mxCell id="CzAb9MrKDRJfytbCW6c--45" style="edgeStyle=orthogonalEdgeStyle;rounded=0;orthogonalLoop=1;jettySize=auto;html=1;entryX=0.5;entryY=1;entryDx=0;entryDy=0;" edge="1" parent="1" source="CzAb9MrKDRJfytbCW6c--18" target="CzAb9MrKDRJfytbCW6c--1">
          <mxGeometry relative="1" as="geometry" />
        </mxCell>
        <mxCell id="CzAb9MrKDRJfytbCW6c--18" value="" style="rounded=0;whiteSpace=wrap;html=1;" vertex="1" parent="1">
          <mxGeometry x="262.5" y="670" width="215" height="160" as="geometry" />
        </mxCell>
        <mxCell id="CzAb9MrKDRJfytbCW6c--37" style="edgeStyle=orthogonalEdgeStyle;rounded=0;orthogonalLoop=1;jettySize=auto;html=1;entryX=0;entryY=0.5;entryDx=0;entryDy=0;" edge="1" parent="1" source="CzAb9MrKDRJfytbCW6c--1" target="CzAb9MrKDRJfytbCW6c--12">
          <mxGeometry relative="1" as="geometry" />
        </mxCell>
        <mxCell id="CzAb9MrKDRJfytbCW6c--43" style="edgeStyle=orthogonalEdgeStyle;rounded=0;orthogonalLoop=1;jettySize=auto;html=1;" edge="1" parent="1" source="CzAb9MrKDRJfytbCW6c--1" target="CzAb9MrKDRJfytbCW6c--16">
          <mxGeometry relative="1" as="geometry" />
        </mxCell>
        <mxCell id="CzAb9MrKDRJfytbCW6c--44" style="edgeStyle=orthogonalEdgeStyle;rounded=0;orthogonalLoop=1;jettySize=auto;html=1;entryX=0.5;entryY=0;entryDx=0;entryDy=0;" edge="1" parent="1" source="CzAb9MrKDRJfytbCW6c--1" target="CzAb9MrKDRJfytbCW6c--18">
          <mxGeometry relative="1" as="geometry" />
        </mxCell>
        <mxCell id="CzAb9MrKDRJfytbCW6c--1" value="" style="rounded=0;whiteSpace=wrap;html=1;" vertex="1" parent="1">
          <mxGeometry x="250" y="450" width="240" height="150" as="geometry" />
        </mxCell>
        <mxCell id="CzAb9MrKDRJfytbCW6c--2" value="" style="sketch=0;outlineConnect=0;fontColor=#232F3E;gradientColor=none;strokeColor=#232F3E;fillColor=#ffffff;dashed=0;verticalLabelPosition=bottom;verticalAlign=top;align=center;html=1;fontSize=12;fontStyle=0;aspect=fixed;shape=mxgraph.aws4.resourceIcon;resIcon=mxgraph.aws4.client;" vertex="1" parent="1">
          <mxGeometry x="340" y="300" width="60" height="60" as="geometry" />
        </mxCell>
        <mxCell id="CzAb9MrKDRJfytbCW6c--8" value="门户应用" style="text;html=1;strokeColor=none;fillColor=none;align=center;verticalAlign=middle;whiteSpace=wrap;rounded=0;" vertex="1" parent="1">
          <mxGeometry x="260" y="460" width="60" height="30" as="geometry" />
        </mxCell>
        <mxCell id="CzAb9MrKDRJfytbCW6c--9" value="" style="sketch=0;outlineConnect=0;fontColor=#232F3E;gradientColor=none;strokeColor=#232F3E;fillColor=#ffffff;dashed=0;verticalLabelPosition=bottom;verticalAlign=top;align=center;html=1;fontSize=12;fontStyle=0;aspect=fixed;shape=mxgraph.aws4.resourceIcon;resIcon=mxgraph.aws4.corporate_data_center;" vertex="1" parent="1">
          <mxGeometry x="300" y="490" width="60" height="60" as="geometry" />
        </mxCell>
        <mxCell id="CzAb9MrKDRJfytbCW6c--10" value="" style="sketch=0;outlineConnect=0;fontColor=#232F3E;gradientColor=none;strokeColor=#232F3E;fillColor=#ffffff;dashed=0;verticalLabelPosition=bottom;verticalAlign=top;align=center;html=1;fontSize=12;fontStyle=0;aspect=fixed;shape=mxgraph.aws4.resourceIcon;resIcon=mxgraph.aws4.corporate_data_center;" vertex="1" parent="1">
          <mxGeometry x="384" y="490" width="60" height="60" as="geometry" />
        </mxCell>
        <mxCell id="CzAb9MrKDRJfytbCW6c--36" style="edgeStyle=orthogonalEdgeStyle;rounded=0;orthogonalLoop=1;jettySize=auto;html=1;" edge="1" parent="1" source="CzAb9MrKDRJfytbCW6c--12" target="CzAb9MrKDRJfytbCW6c--1">
          <mxGeometry relative="1" as="geometry" />
        </mxCell>
        <mxCell id="CzAb9MrKDRJfytbCW6c--12" value="" style="rounded=0;whiteSpace=wrap;html=1;" vertex="1" parent="1">
          <mxGeometry x="570" y="450" width="240" height="150" as="geometry" />
        </mxCell>
        <mxCell id="CzAb9MrKDRJfytbCW6c--13" value="辅助应用" style="text;html=1;strokeColor=none;fillColor=none;align=center;verticalAlign=middle;whiteSpace=wrap;rounded=0;" vertex="1" parent="1">
          <mxGeometry x="580" y="460" width="60" height="30" as="geometry" />
        </mxCell>
        <mxCell id="CzAb9MrKDRJfytbCW6c--14" value="" style="sketch=0;outlineConnect=0;fontColor=#232F3E;gradientColor=none;strokeColor=#232F3E;fillColor=#ffffff;dashed=0;verticalLabelPosition=bottom;verticalAlign=top;align=center;html=1;fontSize=12;fontStyle=0;aspect=fixed;shape=mxgraph.aws4.resourceIcon;resIcon=mxgraph.aws4.corporate_data_center;" vertex="1" parent="1">
          <mxGeometry x="620" y="490" width="60" height="60" as="geometry" />
        </mxCell>
        <mxCell id="CzAb9MrKDRJfytbCW6c--15" value="" style="sketch=0;outlineConnect=0;fontColor=#232F3E;gradientColor=none;strokeColor=#232F3E;fillColor=#ffffff;dashed=0;verticalLabelPosition=bottom;verticalAlign=top;align=center;html=1;fontSize=12;fontStyle=0;aspect=fixed;shape=mxgraph.aws4.resourceIcon;resIcon=mxgraph.aws4.corporate_data_center;" vertex="1" parent="1">
          <mxGeometry x="704" y="490" width="60" height="60" as="geometry" />
        </mxCell>
        <mxCell id="CzAb9MrKDRJfytbCW6c--42" style="edgeStyle=orthogonalEdgeStyle;rounded=0;orthogonalLoop=1;jettySize=auto;html=1;entryX=0;entryY=0.5;entryDx=0;entryDy=0;" edge="1" parent="1" source="CzAb9MrKDRJfytbCW6c--16" target="CzAb9MrKDRJfytbCW6c--1">
          <mxGeometry relative="1" as="geometry" />
        </mxCell>
        <mxCell id="CzAb9MrKDRJfytbCW6c--16" value="对象存储" style="sketch=0;outlineConnect=0;fontColor=#232F3E;gradientColor=none;strokeColor=#232F3E;fillColor=#ffffff;dashed=0;verticalLabelPosition=bottom;verticalAlign=top;align=center;html=1;fontSize=12;fontStyle=0;aspect=fixed;shape=mxgraph.aws4.resourceIcon;resIcon=mxgraph.aws4.corporate_data_center;" vertex="1" parent="1">
          <mxGeometry x="50" y="495" width="60" height="60" as="geometry" />
        </mxCell>
        <mxCell id="CzAb9MrKDRJfytbCW6c--17" value="" style="sketch=0;outlineConnect=0;fontColor=#232F3E;gradientColor=none;strokeColor=#232F3E;fillColor=#ffffff;dashed=0;verticalLabelPosition=bottom;verticalAlign=top;align=center;html=1;fontSize=12;fontStyle=0;aspect=fixed;shape=mxgraph.aws4.resourceIcon;resIcon=mxgraph.aws4.generic_database;" vertex="1" parent="1">
          <mxGeometry x="276" y="700" width="60" height="60" as="geometry" />
        </mxCell>
        <mxCell id="CzAb9MrKDRJfytbCW6c--19" value="" style="sketch=0;outlineConnect=0;fontColor=#232F3E;gradientColor=none;strokeColor=#232F3E;fillColor=#ffffff;dashed=0;verticalLabelPosition=bottom;verticalAlign=top;align=center;html=1;fontSize=12;fontStyle=0;aspect=fixed;shape=mxgraph.aws4.resourceIcon;resIcon=mxgraph.aws4.generic_database;" vertex="1" parent="1">
          <mxGeometry x="336" y="700" width="60" height="60" as="geometry" />
        </mxCell>
        <mxCell id="CzAb9MrKDRJfytbCW6c--20" value="" style="sketch=0;outlineConnect=0;fontColor=#232F3E;gradientColor=none;strokeColor=#232F3E;fillColor=#ffffff;dashed=0;verticalLabelPosition=bottom;verticalAlign=top;align=center;html=1;fontSize=12;fontStyle=0;aspect=fixed;shape=mxgraph.aws4.resourceIcon;resIcon=mxgraph.aws4.generic_database;" vertex="1" parent="1">
          <mxGeometry x="396" y="700" width="60" height="60" as="geometry" />
        </mxCell>
        <mxCell id="CzAb9MrKDRJfytbCW6c--29" value="高可用&lt;br&gt;数据库" style="text;html=1;strokeColor=none;fillColor=none;align=center;verticalAlign=middle;whiteSpace=wrap;rounded=0;" vertex="1" parent="1">
          <mxGeometry x="276" y="760" width="60" height="50" as="geometry" />
        </mxCell>
        <mxCell id="CzAb9MrKDRJfytbCW6c--30" value="高可用&lt;br&gt;数据库" style="text;html=1;strokeColor=none;fillColor=none;align=center;verticalAlign=middle;whiteSpace=wrap;rounded=0;" vertex="1" parent="1">
          <mxGeometry x="336" y="760" width="60" height="50" as="geometry" />
        </mxCell>
        <mxCell id="CzAb9MrKDRJfytbCW6c--31" value="高可用&lt;br&gt;数据库" style="text;html=1;strokeColor=none;fillColor=none;align=center;verticalAlign=middle;whiteSpace=wrap;rounded=0;" vertex="1" parent="1">
          <mxGeometry x="396" y="760" width="60" height="50" as="geometry" />
        </mxCell>
        <mxCell id="CzAb9MrKDRJfytbCW6c--34" style="edgeStyle=orthogonalEdgeStyle;rounded=0;orthogonalLoop=1;jettySize=auto;html=1;entryX=0.5;entryY=0;entryDx=0;entryDy=0;" edge="1" parent="1" source="CzAb9MrKDRJfytbCW6c--33" target="CzAb9MrKDRJfytbCW6c--1">
          <mxGeometry relative="1" as="geometry" />
        </mxCell>
        <mxCell id="CzAb9MrKDRJfytbCW6c--33" value="客户端" style="text;html=1;align=center;verticalAlign=middle;resizable=0;points=[];autosize=1;strokeColor=none;fillColor=none;" vertex="1" parent="1">
          <mxGeometry x="340" y="360" width="60" height="30" as="geometry" />
        </mxCell>
        <mxCell id="CzAb9MrKDRJfytbCW6c--46" value="数据库集群" style="text;html=1;strokeColor=none;fillColor=none;align=center;verticalAlign=middle;whiteSpace=wrap;rounded=0;" vertex="1" parent="1">
          <mxGeometry x="266" y="670" width="70" height="30" as="geometry" />
        </mxCell>
        <mxCell id="CzAb9MrKDRJfytbCW6c--48" value="" style="rounded=0;whiteSpace=wrap;html=1;" vertex="1" parent="1">
          <mxGeometry x="570" y="720" width="220" height="220" as="geometry" />
        </mxCell>
        <mxCell id="CzAb9MrKDRJfytbCW6c--49" value="FE" style="sketch=0;outlineConnect=0;fontColor=#232F3E;gradientColor=none;strokeColor=#232F3E;fillColor=#ffffff;dashed=0;verticalLabelPosition=bottom;verticalAlign=top;align=center;html=1;fontSize=12;fontStyle=0;aspect=fixed;shape=mxgraph.aws4.resourceIcon;resIcon=mxgraph.aws4.corporate_data_center;" vertex="1" parent="1">
          <mxGeometry x="588" y="845" width="60" height="60" as="geometry" />
        </mxCell>
        <mxCell id="CzAb9MrKDRJfytbCW6c--50" value="BE" style="sketch=0;outlineConnect=0;fontColor=#232F3E;gradientColor=none;strokeColor=#232F3E;fillColor=#ffffff;dashed=0;verticalLabelPosition=bottom;verticalAlign=top;align=center;html=1;fontSize=12;fontStyle=0;aspect=fixed;shape=mxgraph.aws4.resourceIcon;resIcon=mxgraph.aws4.corporate_data_center;" vertex="1" parent="1">
          <mxGeometry x="690" y="750" width="60" height="60" as="geometry" />
        </mxCell>
        <mxCell id="CzAb9MrKDRJfytbCW6c--51" value="BE" style="sketch=0;outlineConnect=0;fontColor=#232F3E;gradientColor=none;strokeColor=#232F3E;fillColor=#ffffff;dashed=0;verticalLabelPosition=bottom;verticalAlign=top;align=center;html=1;fontSize=12;fontStyle=0;aspect=fixed;shape=mxgraph.aws4.resourceIcon;resIcon=mxgraph.aws4.corporate_data_center;" vertex="1" parent="1">
          <mxGeometry x="640" y="750" width="60" height="60" as="geometry" />
        </mxCell>
        <mxCell id="CzAb9MrKDRJfytbCW6c--52" value="BE" style="sketch=0;outlineConnect=0;fontColor=#232F3E;gradientColor=none;strokeColor=#232F3E;fillColor=#ffffff;dashed=0;verticalLabelPosition=bottom;verticalAlign=top;align=center;html=1;fontSize=12;fontStyle=0;aspect=fixed;shape=mxgraph.aws4.resourceIcon;resIcon=mxgraph.aws4.corporate_data_center;" vertex="1" parent="1">
          <mxGeometry x="590" y="750" width="60" height="60" as="geometry" />
        </mxCell>
        <mxCell id="CzAb9MrKDRJfytbCW6c--53" value="FE" style="sketch=0;outlineConnect=0;fontColor=#232F3E;gradientColor=none;strokeColor=#232F3E;fillColor=#ffffff;dashed=0;verticalLabelPosition=bottom;verticalAlign=top;align=center;html=1;fontSize=12;fontStyle=0;aspect=fixed;shape=mxgraph.aws4.resourceIcon;resIcon=mxgraph.aws4.corporate_data_center;" vertex="1" parent="1">
          <mxGeometry x="642" y="845" width="60" height="60" as="geometry" />
        </mxCell>
        <mxCell id="CzAb9MrKDRJfytbCW6c--54" value="FE" style="sketch=0;outlineConnect=0;fontColor=#232F3E;gradientColor=none;strokeColor=#232F3E;fillColor=#ffffff;dashed=0;verticalLabelPosition=bottom;verticalAlign=top;align=center;html=1;fontSize=12;fontStyle=0;aspect=fixed;shape=mxgraph.aws4.resourceIcon;resIcon=mxgraph.aws4.corporate_data_center;" vertex="1" parent="1">
          <mxGeometry x="692" y="845" width="60" height="60" as="geometry" />
        </mxCell>
      </root>
    </mxGraphModel>
  </diagram>
</mxfile>
